<?xml version="1.0" standalone="no"?>
<!DOCTYPE svg PUBLIC "-//W3C//DTD SVG 20010904//EN"
 "http://www.w3.org/TR/2001/REC-SVG-20010904/DTD/svg10.dtd">
<svg version="1.0" xmlns="http://www.w3.org/2000/svg"
 width="48.000000pt" height="48.000000pt" viewBox="0 0 48.000000 48.000000"
 preserveAspectRatio="xMidYMid meet">

<g transform="translate(0.000000,48.000000) scale(0.100000,-0.100000)"
fill="#000000" stroke="none">
<path fill="#22c55e"
    d="M141 470 c-100 -21 -134 -80 -135 -231 0 -81 4 -103 25 -144 37 -76
69 -90 209 -90 140 0 172 14 209 90 36 71 36 219 0 291 -32 64 -71 84 -181 89
-46 2 -103 0 -127 -5z m49 -130 c0 -11 -7 -20 -15 -20 -8 0 -15 -7 -15 -15 0
-8 -9 -15 -20 -15 -16 0 -20 7 -20 35 0 33 2 35 35 35 28 0 35 -4 35 -20z m70
-14 c0 -28 -4 -35 -26 -40 -16 -4 -29 -17 -36 -36 -8 -25 -15 -30 -44 -30 -27
0 -34 4 -34 20 0 13 7 20 20 20 11 0 20 7 20 15 0 8 14 24 30 37 17 12 30 28
30 35 0 7 9 13 20 13 16 0 20 -7 20 -34z m70 19 c0 -8 7 -15 15 -15 8 0 15 -9
15 -20 0 -16 -7 -20 -35 -20 -33 0 -35 2 -35 35 0 28 4 35 20 35 11 0 20 -7
20 -15z m-70 -105 c0 -13 -7 -20 -20 -20 -13 0 -20 7 -20 20 0 13 7 20 20 20
13 0 20 -7 20 -20z m100 0 c0 -11 -4 -20 -10 -20 -13 0 -85 -72 -93 -94 -11
-28 -32 -13 -35 25 -3 30 1 36 27 46 19 7 32 20 37 37 5 22 12 26 40 26 27 0
34 -4 34 -20z m-170 -90 c0 -30 -4 -40 -16 -40 -9 0 -18 9 -21 20 -3 11 -12
20 -19 20 -8 0 -14 9 -14 20 0 16 7 20 35 20 34 0 35 -1 35 -40z m170 0 c0
-39 -1 -40 -35 -40 -31 0 -35 3 -35 25 0 16 6 25 15 25 8 0 15 7 15 15 0 8 9
15 20 15 17 0 20 -7 20 -40z"/>
</g>
</svg>
