<?xml version="1.0" standalone="no"?>
<!DOCTYPE svg PUBLIC "-//W3C//DTD SVG 20010904//EN"
 "http://www.w3.org/TR/2001/REC-SVG-20010904/DTD/svg10.dtd">
<svg version="1.0" xmlns="http://www.w3.org/2000/svg"
 fill="#00FF00" width="900.000000pt" height="900.000000pt" viewBox="0 0 900.000000 900.000000"
 preserveAspectRatio="xMidYMid meet">

<g transform="translate(0.000000,900.000000) scale(0.100000,-0.100000)"
fill="#000000" stroke="none">
<path fill="#00FF00" d="M3490 8994 c-520 -26 -806 -58 -1120 -123 -989 -206 -1618 -732
-1979 -1656 -200 -509 -311 -1079 -373 -1905 -18 -241 -18 -1379 0 -1620 73
-975 228 -1653 500 -2190 453 -894 1168 -1327 2402 -1454 364 -38 488 -41
1580 -41 1092 0 1216 3 1580 41 1040 107 1698 427 2157 1051 379 513 614 1249
712 2223 41 409 46 529 46 1180 0 651 -5 771 -46 1180 -155 1539 -645 2471
-1536 2923 -425 215 -871 319 -1633 378 -133 11 -2117 21 -2290 13z m65 -2574
l0 -335 -317 -3 -318 -2 0 -315 0 -315 -315 0 -315 0 0 655 0 655 633 -2 632
-3 0 -335z m1263 -316 l2 -652 -237 -5 c-203 -4 -250 -8 -318 -27 -267 -73
-486 -250 -606 -489 -82 -166 -99 -253 -99 -527 l0 -214 -635 0 -635 0 0 315
0 315 330 0 330 0 6 28 c19 86 72 240 114 329 199 421 582 741 1024 856 l86
22 0 346 c0 190 3 349 7 352 4 4 146 6 317 5 l311 -3 3 -651z m1262 321 l0
-335 315 0 315 0 0 -320 0 -320 -632 2 -633 3 -3 640 c-1 352 0 646 3 653 3 9
77 12 320 12 l315 0 0 -335z m-1260 -1920 l0 -315 -320 0 -320 0 0 315 0 315
320 0 320 0 0 -315z m1890 0 l0 -315 -330 0 -330 0 -6 -27 c-54 -245 -194
-519 -358 -701 -222 -245 -524 -429 -808 -492 l-58 -13 -2 -356 -3 -356 -315
0 -315 0 -3 656 -2 657 232 5 c168 3 251 10 298 21 350 88 602 332 703 681 18
60 21 106 25 313 l4 242 634 0 634 0 0 -315z m-3152 -1602 l-3 -658 -317 -3
-318 -2 0 340 0 340 -315 0 -315 0 0 320 0 320 635 0 635 0 -2 -657z m3152 -3
l0 -660 -632 2 -633 3 -3 343 -2 342 320 0 320 0 0 315 0 315 315 0 315 0 0
-660z"/>
</g>
</svg>
